<svg width="97" height="96" viewBox="0 0 97 96" fill="none" xmlns="http://www.w3.org/2000/svg">
<path d="M48.4792 54.1237H48.4936C57.039 52.102 66.5301 48.6363 76.9647 43.7257C90.3195 37.4476 97 31.9362 97 27.2057C97 26.1449 96.461 25.2973 95.3921 24.6679C94.3277 24.0287 93.0251 23.7114 91.4845 23.7114C87.2859 23.7114 81.3311 25.1795 73.6014 28.1149C65.8762 31.0555 58.7626 35.0231 52.2636 40.0274C45.8606 44.947 41.1509 49.9941 38.1255 55.1597C34.8 55.1267 30.7201 54.435 25.8721 53.0765C28.5822 52.3616 30.925 51.4809 32.8912 50.4487C34.862 49.4164 36.9372 48.0106 39.1226 46.2395C41.3127 44.4781 43.1829 42.6695 44.7334 40.8181C46.2839 38.9712 48.7037 35.7237 51.9808 31.0735C60.5315 29.1651 68.7428 25.6093 76.6109 20.425C84.4835 15.2406 88.4107 10.7704 88.4107 7.0256C88.4107 5.83734 87.9813 4.85688 87.1226 4.09472C86.2593 3.33256 85.1472 2.95373 83.7638 2.95373C79.7557 2.95373 74.1926 5.45851 67.0782 10.4771C62.5643 13.6585 58.3513 17.6689 54.4528 22.5037C54.3478 22.6222 54.2472 22.7497 54.152 22.8727C52.0141 25.5523 49.9677 28.4832 48.0113 31.6556C43.3258 32.7119 38.8497 33.2467 34.599 33.2467C31.4118 33.2467 28.7395 32.9106 26.5683 32.2528C25.9288 32.0637 25.3376 31.8312 24.7888 31.5806C23.9678 31.2063 23.2519 30.7659 22.632 30.2596C20.1797 28.2709 18.9535 25.9604 18.9535 23.3228C18.9535 19.7341 20.5282 16.1025 23.6866 12.423C26.8405 8.74422 31.3733 5.95512 37.2902 4.07072C43.2064 2.18631 48.9706 1.24411 54.6055 1.24411C56.4047 1.24411 58.0936 1.31988 59.6871 1.48116L59.7204 1.09258C57.8736 0.931294 56.1326 0.860779 54.4816 0.860779C44.6858 0.860779 36.188 2.84495 28.9829 6.81255C21.7778 10.7847 18.1756 15.9458 18.1756 22.3049C18.1756 25.3543 19.4018 28.0053 21.8685 30.2543C22.5746 30.898 23.4288 31.4523 24.4161 31.9114C24.965 32.1762 25.5569 32.4088 26.1911 32.5978C28.4001 33.2887 31.1344 33.6345 34.3933 33.6345C38.8739 33.6345 43.3062 33.0997 47.6862 32.039C40.1281 43.7715 32.5798 50.7412 25.0557 52.9669C24.1727 52.6781 23.2852 52.4133 22.3977 52.1718C22.059 52.072 21.7204 51.982 21.3862 51.8972C16.8769 50.7375 12.3396 50.1598 7.77282 50.1598C2.59144 50.1598 0 51.1636 0 53.1807C0 53.9339 0.625182 54.5303 1.88008 54.9894C3.12591 55.4395 5.85948 55.6615 10.0823 55.6615C14.7201 55.6615 19.0722 55.0696 23.137 53.8814C23.9625 54.1514 24.7971 54.3975 25.6325 54.606C25.639 54.609 25.6438 54.6105 25.6468 54.6105C27.9752 55.5055 30.8668 55.9458 34.3404 55.9458C34.6836 55.9458 35.042 55.9413 35.4282 55.9316H35.4668C35.677 55.9361 35.8962 55.9361 36.1154 55.9361C36.6212 55.9361 37.1178 55.9316 37.6137 55.9121C36.163 58.5159 35.4335 61.1347 35.4335 63.7385C35.4335 66.3423 36.2734 68.2747 37.9577 69.8088C39.6375 71.3474 41.6793 72.1193 44.075 72.1193C47.2001 72.1193 51.1841 71.3331 56.032 69.7518C60.88 68.1749 66.7153 65.022 73.5432 60.2915L64.2441 69.0939C61.2429 71.835 58.1608 75.1919 54.9782 79.1835L38.9125 83.1324C35.1863 84.1931 31.9221 85.4857 29.1258 87.01C26.3249 88.5396 24.9173 90.2537 24.9173 92.1711C24.9173 93.075 25.3656 93.8237 26.2675 94.4246C27.1648 95.0164 28.6147 95.3098 30.6332 95.3098C33.1331 95.3098 35.6717 94.9024 38.2677 94.0885C40.8636 93.2791 43.5352 92.0713 46.2983 90.4667C49.0658 88.8614 51.1606 87.3888 52.5871 86.04C54.0234 84.7002 56.4138 82.0484 59.7491 78.0906C67.1205 76.438 73.1758 73.4883 77.9232 69.2507L77.6466 68.9761C75.1753 71.2296 72.2119 73.1193 68.7527 74.6391C65.3032 76.1634 62.3874 77.1626 60.0205 77.6315C64.4006 70.3639 70.6229 63.3559 78.7057 56.6045L78.3095 56.0599C70.914 62.0589 64.3484 66.1878 58.6129 68.4315C52.8819 70.6805 48.0914 71.8125 44.27 71.8125C42.3378 71.8125 40.6625 71.2866 39.2504 70.2596C37.8239 69.2229 37.1178 67.8636 37.1178 66.1878C37.1178 63.2997 38.5542 59.7814 41.417 55.639C43.9412 55.3502 46.293 54.8483 48.4785 54.1237H48.4792ZM41.9568 54.9519C44.6049 50.913 49.1951 46.2447 55.7221 40.9606C62.364 35.5722 68.8577 31.4156 75.2086 28.4892C81.5496 25.5583 86.9132 24.1045 91.2887 24.1045C92.8301 24.1045 94.0706 24.3746 95.0201 24.9192C95.9696 25.4585 96.4519 26.1457 96.4519 26.9791C96.4519 29.3841 94.1379 32.372 89.5144 35.9323C84.8864 39.4881 77.8295 43.2336 68.3482 47.1682C62.3602 49.6542 56.6202 51.6377 51.1425 53.1102C47.9455 53.9669 44.8249 54.6541 41.8093 55.1702C41.857 55.0989 41.9001 55.0231 41.9575 54.9526L41.9568 54.9519ZM62.0971 17.2248C66.2149 12.5655 70.1844 9.09004 74.0066 6.7893C77.8189 4.48856 81.0733 3.34231 83.7593 3.34231C84.9333 3.34231 85.9403 3.66938 86.7703 4.33177C87.6056 4.98516 88.0207 5.79459 88.0207 6.74654C88.0207 10.075 84.5281 14.2984 77.5422 19.398C70.5518 24.4976 62.1448 28.2709 52.3104 30.7239C54.7152 26.3865 57.9696 21.8938 62.0971 17.2248ZM10.1216 55.2737C5.89879 55.2737 3.25594 55.0704 2.16735 54.6488C1.08934 54.2317 0.54505 53.7351 0.54505 53.162C0.54505 51.5994 2.79707 50.8132 7.31093 50.8132C11.2714 50.8132 16.2479 51.7742 22.2405 53.6923C19.2151 54.7486 15.1782 55.2737 10.1208 55.2737H10.1216ZM41.3747 91.9738C37.7249 93.9437 34.0652 94.9287 30.3958 94.9287C28.7977 94.9287 27.5851 94.6916 26.7362 94.2325C25.8963 93.7637 25.4714 93.1433 25.4714 92.3721C25.4714 90.1704 28.01 88.0159 33.087 85.9042C38.1686 83.8023 45.311 81.7521 54.511 79.7634C49.3962 85.9425 45.0252 90.0099 41.3754 91.9745L41.3747 91.9738Z" fill="#1D1D1B"/>
</svg>
